<svg width="42" height="42" viewBox="0 0 42 42" fill="none" xmlns="http://www.w3.org/2000/svg">
<path d="M27.8743 30.7917L30.791 27.875L23.0827 20.1667V10.5833H18.916V21.8333L27.8743 30.7917ZM20.9993 41.8333C18.1174 41.8333 15.4091 41.2861 12.8743 40.1917C10.3396 39.0986 8.13477 37.6146 6.25977 35.7396C4.38477 33.8646 2.90074 31.6597 1.80768 29.125C0.713238 26.5903 0.166016 23.8819 0.166016 21C0.166016 18.1181 0.713238 15.4097 1.80768 12.875C2.90074 10.3403 4.38477 8.13542 6.25977 6.26042C8.13477 4.38542 10.3396 2.9007 12.8743 1.80625C15.4091 0.713196 18.1174 0.166668 20.9993 0.166668C23.8813 0.166668 26.5896 0.713196 29.1243 1.80625C31.6591 2.9007 33.8639 4.38542 35.7389 6.26042C37.6139 8.13542 39.098 10.3403 40.191 12.875C41.2855 15.4097 41.8327 18.1181 41.8327 21C41.8327 23.8819 41.2855 26.5903 40.191 29.125C39.098 31.6597 37.6139 33.8646 35.7389 35.7396C33.8639 37.6146 31.6591 39.0986 29.1243 40.1917C26.5896 41.2861 23.8813 41.8333 20.9993 41.8333ZM20.9993 37.6667C25.6174 37.6667 29.55 36.0438 32.7973 32.7979C36.0431 29.5507 37.666 25.6181 37.666 21C37.666 16.3819 36.0431 12.4493 32.7973 9.20208C29.55 5.95625 25.6174 4.33333 20.9993 4.33333C16.3813 4.33333 12.4493 5.95625 9.20352 9.20208C5.95629 12.4493 4.33268 16.3819 4.33268 21C4.33268 25.6181 5.95629 29.5507 9.20352 32.7979C12.4493 36.0438 16.3813 37.6667 20.9993 37.6667Z" fill="currentColor"/>
</svg>
