<svg width="50" height="50" viewBox="0 0 50 50" fill="none" xmlns="http://www.w3.org/2000/svg">
<mask id="mask0_117_6795" style="mask-type:alpha" maskUnits="userSpaceOnUse" x="0" y="0" width="50" height="50">
<rect width="50" height="50" fill="#D9D9D9"/>
</mask>
<g mask="url(#mask0_117_6795)">
<path d="M18.7507 41.6667C14.0979 41.6667 10.1569 40.0521 6.92773 36.8229C3.69857 33.5938 2.08398 29.6528 2.08398 25C2.08398 20.3472 3.69857 16.4062 6.92773 13.1771C10.1569 9.94792 14.0979 8.33333 18.7507 8.33333C23.4034 8.33333 27.3444 9.94792 30.5736 13.1771C33.8027 16.4062 35.4173 20.3472 35.4173 25C35.4173 29.6528 33.8027 33.5938 30.5736 36.8229C27.3444 40.0521 23.4034 41.6667 18.7507 41.6667ZM18.7507 37.5C22.2229 37.5 25.1743 36.2847 27.6048 33.8542C30.0354 31.4236 31.2507 28.4722 31.2507 25C31.2507 21.5278 30.0354 18.5764 27.6048 16.1458C25.1743 13.7153 22.2229 12.5 18.7507 12.5C15.2784 12.5 12.327 13.7153 9.89648 16.1458C7.46593 18.5764 6.25065 21.5278 6.25065 25C6.25065 28.4722 7.46593 31.4236 9.89648 33.8542C12.327 36.2847 15.2784 37.5 18.7507 37.5ZM39.584 18.75L36.9798 13.0208L31.2507 10.4167L36.9798 7.8125L39.584 2.08333L42.1882 7.8125L47.9173 10.4167L42.1882 13.0208L39.584 18.75ZM39.584 47.9167L36.9798 42.1875L31.2507 39.5833L36.9798 36.9792L39.584 31.25L42.1882 36.9792L47.9173 39.5833L42.1882 42.1875L39.584 47.9167Z" fill="currentColor"/>
<path d="M19.1173 33.1818C17.9642 33.1818 16.9779 32.9631 16.1582 32.5257C15.3386 32.0814 14.7134 31.4392 14.2827 30.5991C13.8521 29.7521 13.6367 28.7315 13.6367 27.5374V23.3821C13.6367 22.188 13.8521 21.1709 14.2827 20.3308C14.7134 19.4838 15.3386 18.8381 16.1582 18.3938C16.9779 17.9494 17.9642 17.7273 19.1173 17.7273C20.0689 17.7273 20.9199 17.9321 21.6701 18.3417C22.4203 18.7513 23.0385 19.3484 23.5247 20.1329C24.0179 20.9105 24.3583 21.8513 24.5458 22.9552H21.5867C21.4756 22.4553 21.3019 22.0283 21.0657 21.6742C20.8365 21.3201 20.5552 21.0494 20.2218 20.8619C19.8953 20.6745 19.5271 20.5807 19.1173 20.5807C18.5825 20.5807 18.1275 20.6918 17.7524 20.914C17.3773 21.1292 17.089 21.4486 16.8876 21.8721C16.6931 22.2887 16.5958 22.792 16.5958 23.3821V27.5374C16.5958 28.1275 16.6931 28.6308 16.8876 29.0474C17.089 29.464 17.3773 29.7833 17.7524 30.0055C18.1275 30.2207 18.5825 30.3284 19.1173 30.3284C19.5341 30.3284 19.9092 30.2381 20.2426 30.0576C20.576 29.8701 20.8573 29.5994 21.0866 29.2453C21.3158 28.8912 21.4825 28.4608 21.5867 27.9539H24.5458C24.3513 29.0578 24.0075 30.002 23.5143 30.7866C23.0281 31.5642 22.4098 32.1578 21.6596 32.5674C20.9164 32.977 20.0689 33.1818 19.1173 33.1818Z" fill="currentColor"/>
</g>
</svg>
