<svg width="16" height="17" viewBox="0 0 16 17" fill="none" xmlns="http://www.w3.org/2000/svg">
<path d="M3.3 16.9375C2.8 16.9375 2.375 16.7625 2.025 16.4125C1.675 16.0625 1.5 15.6375 1.5 15.1375V2.4375H0.5V0.9375H5V0.0625H11V0.9375H15.5V2.4375H14.5V15.1375C14.5 15.6375 14.325 16.0625 13.975 16.4125C13.625 16.7625 13.2 16.9375 12.7 16.9375H3.3ZM13 2.4375H3V15.1375C3 15.2208 3.02933 15.2918 3.088 15.3505C3.146 15.4085 3.21667 15.4375 3.3 15.4375H12.7C12.7667 15.4375 12.8333 15.4042 12.9 15.3375C12.9667 15.2708 13 15.2042 13 15.1375V2.4375ZM5.4 13.4375H6.9V4.4375H5.4V13.4375ZM9.1 13.4375H10.6V4.4375H9.1V13.4375ZM3 2.4375V15.4375V15.1375V2.4375Z" fill="currentColor"/>
</svg>
