<svg width="15" height="20" viewBox="0 0 15 20" fill="none" xmlns="http://www.w3.org/2000/svg">
<path d="M3.75 15.75H11.25V14.25H3.75V15.75ZM3.75 11.75H11.25V10.25H3.75V11.75ZM1.8 19.5C1.3 19.5 0.875 19.325 0.525 18.975C0.175 18.625 0 18.2 0 17.7V2.3C0 1.8 0.175 1.375 0.525 1.025C0.875 0.675 1.3 0.5 1.8 0.5H9.75L15 5.75V17.7C15 18.2 14.825 18.625 14.475 18.975C14.125 19.325 13.7 19.5 13.2 19.5H1.8ZM9 6.5V2H1.8C1.73333 2 1.66667 2.03333 1.6 2.1C1.53333 2.16667 1.5 2.23333 1.5 2.3V17.7C1.5 17.7667 1.53333 17.8333 1.6 17.9C1.66667 17.9667 1.73333 18 1.8 18H13.2C13.2667 18 13.3333 17.9667 13.4 17.9C13.4667 17.8333 13.5 17.7667 13.5 17.7V6.5H9Z" fill="currentColor"/>
</svg>
