<svg width="19" height="20" viewBox="0 0 19 20" fill="none" xmlns="http://www.w3.org/2000/svg">
<path d="M10.55 0.537889C11.75 0.671222 12.8623 1.00856 13.887 1.54989C14.9123 2.09189 15.804 2.78789 16.562 3.63789C17.3207 4.48789 17.9167 5.45856 18.35 6.54989C18.7833 7.64189 19 8.79622 19 10.0129C19 12.4629 18.1917 14.5839 16.575 16.3759C14.9583 18.1672 12.9417 19.1962 10.525 19.4629L10.525 17.9629C12.525 17.6796 14.1873 16.7879 15.512 15.2879C16.8373 13.7879 17.5 12.0296 17.5 10.0129C17.5 7.99622 16.8417 6.23389 15.525 4.72589C14.2083 3.21722 12.55 2.32122 10.55 2.03789L10.55 0.537889ZM9.55 5.33789L14.2 10.0129L13.15 11.0879L10.3 8.23789L10.3 14.6379L8.8 14.6379L8.8 8.23789L5.95 11.0629L4.875 9.98789L9.55 5.33789ZM8.55 0.537889L8.55 2.03789C7.83333 2.13789 7.14567 2.32522 6.487 2.59989C5.829 2.87522 5.21667 3.22956 4.65 3.66289L3.525 2.58789C4.275 2.02122 5.07067 1.56722 5.912 1.22589C6.754 0.883891 7.63333 0.654555 8.55 0.537889ZM4.6 16.3129C5.18333 16.7462 5.80433 17.1046 6.463 17.3879C7.121 17.6712 7.80833 17.8629 8.525 17.9629L8.525 19.4629C7.60833 19.3629 6.729 19.1379 5.887 18.7879C5.04567 18.4379 4.25833 17.9796 3.525 17.4129L4.6 16.3129ZM2.125 4.03789L3.2 5.11289C2.76667 5.67956 2.41667 6.29222 2.15 6.95089C1.88333 7.60889 1.7 8.29622 1.6 9.01289L0.0500002 9.01289C0.183333 8.09622 0.420667 7.21289 0.762 6.36289C1.104 5.51289 1.55833 4.73789 2.125 4.03789ZM1.6 11.0129C1.7 11.7296 1.88333 12.4172 2.15 13.0759C2.41667 13.7339 2.76667 14.3462 3.2 14.9129L2.125 15.9879C1.55833 15.2712 1.1 14.4879 0.750001 13.6379C0.4 12.7879 0.166667 11.9129 0.05 11.0129L1.6 11.0129Z" fill="currentColor"/>
</svg>
