<svg width="18" height="16" viewBox="0 0 18 16" fill="none" xmlns="http://www.w3.org/2000/svg">
<path d="M8.5756 7.19553L1.42477 2.63687V11.7989C1.42477 11.8734 1.45099 11.9368 1.50343 11.9893C1.55527 12.0411 1.61844 12.067 1.69292 12.067H9.69292V13.4078H1.69292C1.246 13.4078 0.866107 13.2514 0.553258 12.9385C0.240409 12.6257 0.0839844 12.2458 0.0839844 11.7989V1.60894C0.0839844 1.16201 0.240409 0.782123 0.553258 0.469274C0.866107 0.156425 1.246 0 1.69292 0H15.4583C15.9052 0 16.2851 0.156425 16.598 0.469274C16.9108 0.782123 17.0672 1.16201 17.0672 1.60894V7.82123H15.7264V2.63687L8.5756 7.19553ZM8.5756 5.81006L15.5924 1.34078H1.55884L8.5756 5.81006ZM14.6538 16L13.7376 15.0615L15.3466 13.4078H11.3019V12.067H15.3689L13.7153 10.4134L14.6538 9.47486L17.9164 12.7374L14.6538 16ZM1.42477 2.63687V12.8045V7.82123V7.93296V1.34078V2.63687Z" fill="#274593"/>
</svg>
