<svg width="24" height="24" viewBox="0 0 24 24" fill="none" xmlns="http://www.w3.org/2000/svg">
<mask id="mask0_140_10039" style="mask-type:alpha" maskUnits="userSpaceOnUse" x="0" y="0" width="24" height="24">
<rect width="24" height="24" fill="#D9D9D9"/>
</mask>
<g mask="url(#mask0_140_10039)">
<path d="M9 20C6.76667 20 4.875 19.225 3.325 17.675C1.775 16.125 1 14.2333 1 12C1 9.76667 1.775 7.875 3.325 6.325C4.875 4.775 6.76667 4 9 4C11.2333 4 13.125 4.775 14.675 6.325C16.225 7.875 17 9.76667 17 12C17 14.2333 16.225 16.125 14.675 17.675C13.125 19.225 11.2333 20 9 20ZM9 18C10.6667 18 12.0833 17.4167 13.25 16.25C14.4167 15.0833 15 13.6667 15 12C15 10.3333 14.4167 8.91667 13.25 7.75C12.0833 6.58333 10.6667 6 9 6C7.33333 6 5.91667 6.58333 4.75 7.75C3.58333 8.91667 3 10.3333 3 12C3 13.6667 3.58333 15.0833 4.75 16.25C5.91667 17.4167 7.33333 18 9 18ZM19 9L17.75 6.25L15 5L17.75 3.75L19 1L20.25 3.75L23 5L20.25 6.25L19 9ZM19 23L17.75 20.25L15 19L17.75 17.75L19 15L20.25 17.75L23 19L20.25 20.25L19 23Z" fill="currentColor"/>
<path d="M9.17561 15.927C8.62213 15.927 8.14867 15.822 7.75524 15.612C7.3618 15.3988 7.06172 15.0905 6.855 14.6873C6.64828 14.2807 6.54492 13.7908 6.54492 13.2176V11.2231C6.54492 10.6499 6.64828 10.1617 6.855 9.75848C7.06172 9.35192 7.3618 9.04199 7.75524 8.82871C8.14867 8.61543 8.62213 8.50879 9.17561 8.50879C9.63239 8.50879 10.0408 8.6071 10.4009 8.80372C10.761 9.00034 11.0578 9.28693 11.2912 9.66351C11.5279 10.0367 11.6913 10.4883 11.7813 11.0182H10.3609C10.3076 10.7782 10.2242 10.5733 10.1109 10.4033C10.0008 10.2334 9.86579 10.1034 9.70575 10.0134C9.54904 9.92344 9.37232 9.87845 9.17561 9.87845C8.91887 9.87845 8.70048 9.93177 8.52044 10.0384C8.34039 10.1417 8.20202 10.295 8.10533 10.4983C8.01197 10.6983 7.96529 10.9399 7.96529 11.2231V13.2176C7.96529 13.5009 8.01197 13.7425 8.10533 13.9425C8.20202 14.1424 8.34039 14.2957 8.52044 14.4023C8.70048 14.5057 8.91887 14.5573 9.17561 14.5573C9.37566 14.5573 9.55571 14.514 9.71575 14.4273C9.87579 14.3374 10.0108 14.2074 10.1209 14.0374C10.2309 13.8675 10.3109 13.6609 10.3609 13.4176H11.7813C11.6879 13.9475 11.5229 14.4007 11.2862 14.7773C11.0528 15.1505 10.756 15.4354 10.3959 15.632C10.0392 15.8287 9.63239 15.927 9.17561 15.927Z" fill="currentColor"/>
</g>
</svg>
