<svg width="16" height="20" viewBox="0 0 16 20" fill="none" xmlns="http://www.w3.org/2000/svg">
<path d="M8.00043 13.6268C8.23468 13.6268 8.42711 13.5472 8.5777 13.3879C8.7283 13.2292 8.8036 13.0328 8.8036 12.7985C8.8036 12.581 8.7283 12.3929 8.5777 12.2343C8.42711 12.075 8.23468 11.9954 8.00043 11.9954C7.76617 11.9954 7.57374 12.075 7.42315 12.2343C7.27255 12.3929 7.19726 12.581 7.19726 12.7985C7.19726 13.0328 7.27255 13.2292 7.42315 13.3879C7.57374 13.5472 7.76617 13.6268 8.00043 13.6268ZM7.24745 10.1882H8.7534V5.34412H7.24745V10.1882ZM8.00043 19.5C5.82517 18.9144 4.02641 17.6387 2.60412 15.6729C1.18184 13.7065 0.470703 11.5101 0.470703 9.08388V3.3111L8.00043 0.5L15.5301 3.3111V9.08388C15.5301 11.5101 14.819 13.7065 13.3967 15.6729C11.9744 17.6387 10.1757 18.9144 8.00043 19.5ZM8.00043 17.9188C9.74063 17.3666 11.1796 16.2622 12.3175 14.6057C13.4553 12.9491 14.0242 11.1085 14.0242 9.08388V4.34016L8.00043 2.08124L1.97665 4.34016V9.08388C1.97665 11.1085 2.54556 12.9491 3.68338 14.6057C4.82121 16.2622 6.26022 17.3666 8.00043 17.9188Z" fill="white"/>
</svg>
