<svg width="22" height="20" viewBox="0 0 22 20" fill="none" xmlns="http://www.w3.org/2000/svg">
<path d="M5.30078 19.5C4.80078 19.5 4.37578 19.325 4.02578 18.975C3.67578 18.625 3.50078 18.2 3.50078 17.7V14.75H5.00078V17.7C5.00078 17.7833 5.03011 17.8543 5.08878 17.913C5.14678 17.971 5.21745 18 5.30078 18H16.7008C16.7841 18 16.8551 17.971 16.9138 17.913C16.9718 17.8543 17.0008 17.7833 17.0008 17.7V14.75H18.5008V17.7C18.5008 18.2 18.3258 18.625 17.9758 18.975C17.6258 19.325 17.2008 19.5 16.7008 19.5H5.30078ZM3.50078 9.25V2.3C3.50078 1.8 3.67578 1.375 4.02578 1.025C4.37578 0.675 4.80078 0.5 5.30078 0.5H13.2508L18.5008 5.75V9.25H17.0008V6.5H12.5008V2H5.30078C5.21745 2 5.14678 2.029 5.08878 2.087C5.03011 2.14567 5.00078 2.21667 5.00078 2.3V9.25H3.50078ZM8.10078 12.75V11.25H13.9008V12.75H8.10078ZM15.9008 12.75V11.25H21.7008V12.75H15.9008ZM0.300781 12.75V11.25H6.10078V12.75H0.300781Z" fill="currentColor"/>
</svg>
