<svg width="8" height="12" viewBox="0 0 8 12" fill="none" xmlns="http://www.w3.org/2000/svg">
<path d="M3.656 10.304C3.56 10.688 3.51733 10.976 3.528 11.168C3.53867 11.36 3.62933 11.488 3.8 11.552C3.97067 11.616 4.23733 11.6587 4.6 11.68L4.536 12C4.29067 11.9787 3.98133 11.968 3.608 11.968C3.24533 11.9573 2.87733 11.952 2.504 11.952C2.088 11.952 1.704 11.9573 1.352 11.968C1 11.968 0.706667 11.9787 0.472 12L0.552 11.68C0.904 11.6587 1.176 11.616 1.368 11.552C1.57067 11.488 1.73067 11.36 1.848 11.168C1.96533 10.976 2.072 10.688 2.168 10.304L4.28 2.368C4.38667 1.97333 4.42933 1.68533 4.408 1.504C4.38667 1.312 4.29067 1.184 4.12 1.12C3.96 1.04533 3.69867 1.00267 3.336 0.992L3.416 0.672C3.62933 0.682666 3.91733 0.693333 4.28 0.704C4.64267 0.714666 5.032 0.719999 5.448 0.719999C5.82133 0.719999 6.18933 0.714666 6.552 0.704C6.92533 0.693333 7.24 0.682666 7.496 0.672L7.416 0.992C7.05333 1.00267 6.77067 1.04533 6.568 1.12C6.36533 1.184 6.20533 1.312 6.088 1.504C5.98133 1.68533 5.87467 1.97333 5.768 2.368L3.656 10.304Z" fill="currentColor"/>
</svg>
