<svg width="18" height="20" viewBox="0 0 18 20" fill="none" xmlns="http://www.w3.org/2000/svg">
<path d="M3 19.5C2.3 19.5 1.70833 19.2583 1.225 18.775C0.741667 18.2917 0.5 17.7 0.5 17V14.5H3.5V0.699997L4.875 1.875L6.3 0.699997L7.7 1.875L9.1 0.699997L10.5 1.875L11.9 0.699997L13.3 1.875L14.7 0.699997L16.125 1.875L17.5 0.699997V17C17.5 17.7 17.2583 18.2917 16.775 18.775C16.2917 19.2583 15.7 19.5 15 19.5H3ZM15 18C15.2833 18 15.5207 17.904 15.712 17.712C15.904 17.5207 16 17.2833 16 17V3H5V14.5H14V17C14 17.2833 14.096 17.5207 14.288 17.712C14.4793 17.904 14.7167 18 15 18ZM6.2 6.75V5.25H11.875V6.75H6.2ZM6.2 9.75V8.25H11.875V9.75H6.2ZM13.95 6.875C13.7 6.875 13.4873 6.79166 13.312 6.625C13.1373 6.45833 13.05 6.25 13.05 6C13.05 5.75 13.1373 5.54166 13.312 5.375C13.4873 5.20833 13.7 5.125 13.95 5.125C14.1833 5.125 14.3873 5.20833 14.562 5.375C14.7373 5.54166 14.825 5.75 14.825 6C14.825 6.25 14.7373 6.45833 14.562 6.625C14.3873 6.79166 14.1833 6.875 13.95 6.875ZM13.95 9.875C13.7 9.875 13.4873 9.79166 13.312 9.625C13.1373 9.45833 13.05 9.25 13.05 9C13.05 8.75 13.1373 8.54166 13.312 8.375C13.4873 8.20833 13.7 8.125 13.95 8.125C14.1833 8.125 14.3873 8.20833 14.562 8.375C14.7373 8.54166 14.825 8.75 14.825 9C14.825 9.25 14.7373 9.45833 14.562 9.625C14.3873 9.79166 14.1833 9.875 13.95 9.875ZM3 18H12.5V16H2V17C2 17.2833 2.09567 17.5207 2.287 17.712C2.479 17.904 2.71667 18 3 18Z" fill="currentColor"/>
</svg>
