<svg width="20" height="18" viewBox="0 0 20 18" fill="none" xmlns="http://www.w3.org/2000/svg">
<path d="M0.375 17.575V0.0749969H9.875V4.075H19.625V17.575H0.375ZM1.875 16.075H4.375V13.575H1.875V16.075ZM1.875 12.075H4.375V9.575H1.875V12.075ZM1.875 8.075H4.375V5.575H1.875V8.075ZM1.875 4.075H4.375V1.575H1.875V4.075ZM5.875 16.075H8.375V13.575H5.875V16.075ZM5.875 12.075H8.375V9.575H5.875V12.075ZM5.875 8.075H8.375V5.575H5.875V8.075ZM5.875 4.075H8.375V1.575H5.875V4.075ZM9.875 16.075H18.125V5.575H9.875V8.075H12.05V9.575H9.875V12.075H12.05V13.575H9.875V16.075ZM14.25 9.575V8.075H15.75V9.575H14.25ZM14.25 13.575V12.075H15.75V13.575H14.25Z" fill="currentColor"/>
</svg>
