<svg width="20" height="20" viewBox="0 0 20 20" fill="none" xmlns="http://www.w3.org/2000/svg">
<path d="M2.3 19.5C1.8 19.5 1.375 19.325 1.025 18.975C0.675 18.625 0.5 18.2 0.5 17.7V7.3C0.5 6.8 0.675 6.375 1.025 6.025C1.375 5.675 1.8 5.5 2.3 5.5H7.5V2C7.5 1.58333 7.646 1.22933 7.938 0.938C8.22933 0.646 8.58333 0.5 9 0.5H11C11.4167 0.5 11.7707 0.646 12.062 0.938C12.354 1.22933 12.5 1.58333 12.5 2V5.5H17.7C18.2 5.5 18.625 5.675 18.975 6.025C19.325 6.375 19.5 6.8 19.5 7.3V17.7C19.5 18.2 19.325 18.625 18.975 18.975C18.625 19.325 18.2 19.5 17.7 19.5H2.3ZM2.3 18H17.7C17.7833 18 17.8543 17.971 17.913 17.913C17.971 17.8543 18 17.7833 18 17.7V7.3C18 7.21667 17.971 7.14567 17.913 7.087C17.8543 7.029 17.7833 7 17.7 7H12.5C12.5 7.45 12.346 7.81233 12.038 8.087C11.7293 8.36233 11.35 8.5 10.9 8.5H9.1C8.65 8.5 8.271 8.36233 7.963 8.087C7.65433 7.81233 7.5 7.45 7.5 7H2.3C2.21667 7 2.146 7.029 2.088 7.087C2.02933 7.14567 2 7.21667 2 7.3V17.7C2 17.7833 2.02933 17.8543 2.088 17.913C2.146 17.971 2.21667 18 2.3 18ZM4.15 15.7H9.85V15.425C9.85 15.1583 9.77933 14.9167 9.638 14.7C9.496 14.4833 9.3 14.3167 9.05 14.2C8.71667 14.05 8.38333 13.9417 8.05 13.875C7.71667 13.8083 7.36667 13.775 7 13.775C6.63333 13.775 6.28333 13.8083 5.95 13.875C5.61667 13.9417 5.28333 14.05 4.95 14.2C4.7 14.3167 4.50433 14.4833 4.363 14.7C4.221 14.9167 4.15 15.1583 4.15 15.425V15.7ZM12 14.2H16V13H12V14.2ZM7 13C7.36667 13 7.68333 12.8667 7.95 12.6C8.21667 12.3333 8.35 12.0167 8.35 11.65C8.35 11.2833 8.21667 10.9667 7.95 10.7C7.68333 10.4333 7.36667 10.3 7 10.3C6.63333 10.3 6.31667 10.4333 6.05 10.7C5.78333 10.9667 5.65 11.2833 5.65 11.65C5.65 12.0167 5.78333 12.3333 6.05 12.6C6.31667 12.8667 6.63333 13 7 13ZM12 11.5H16V10.3H12V11.5ZM9 7H11V2H9V7Z" fill="currentColor"/>
</svg>
