<svg width="22" height="27" viewBox="0 0 22 27" fill="none" xmlns="http://www.w3.org/2000/svg">
<path d="M0.666016 22.1667V20.1667H3.33268V10.5C3.33268 8.67778 3.89402 7.072 5.01668 5.68267C6.13846 4.29422 7.57713 3.4 9.33268 3V2.06667C9.33268 1.6 9.49401 1.20533 9.81668 0.882668C10.1385 0.56089 10.5327 0.400002 10.9993 0.400002C11.466 0.400002 11.8602 0.56089 12.182 0.882668C12.5047 1.20533 12.666 1.6 12.666 2.06667V3C14.4216 3.4 15.8607 4.29422 16.9833 5.68267C18.1051 7.072 18.666 8.67778 18.666 10.5V20.1667H21.3327V22.1667H0.666016ZM10.9993 26.0667C10.3327 26.0667 9.76602 25.8333 9.29935 25.3667C8.83268 24.9 8.59935 24.3333 8.59935 23.6667H13.3993C13.3993 24.3333 13.166 24.9 12.6993 25.3667C12.2327 25.8333 11.666 26.0667 10.9993 26.0667ZM5.33268 20.1667H16.666V10.5C16.666 8.92222 16.1158 7.58311 15.0153 6.48267C13.9158 5.38311 12.5771 4.83333 10.9993 4.83333C9.42157 4.83333 8.0829 5.38311 6.98335 6.48267C5.8829 7.58311 5.33268 8.92222 5.33268 10.5V20.1667Z" fill="currentColor"/>
</svg>
