<svg width="40" height="40" viewBox="0 0 40 40" fill="none" xmlns="http://www.w3.org/2000/svg">
<mask id="mask0_129_10651" style="mask-type:alpha" maskUnits="userSpaceOnUse" x="0" y="0" width="40" height="40">
<rect width="40" height="40" fill="#D9D9D9"/>
</mask>
<g mask="url(#mask0_129_10651)">
<path d="M17.0833 26.5833L27.5833 19.8333L17.0833 13.0833V26.5833ZM20.8333 35.6667C18.6389 35.6667 16.5767 35.25 14.6467 34.4167C12.7156 33.5833 11.0417 32.4583 9.625 31.0417C8.20833 29.625 7.08333 27.9511 6.25 26.02C5.41667 24.09 5 22.0278 5 19.8333C5 17.6389 5.41667 15.5761 6.25 13.645C7.08333 11.715 8.20833 10.0417 9.625 8.625C11.0417 7.20833 12.7156 6.08333 14.6467 5.25C16.5767 4.41667 18.6389 4 20.8333 4C23.0278 4 25.0906 4.41667 27.0217 5.25C28.9517 6.08333 30.625 7.20833 32.0417 8.625C33.4583 10.0417 34.5833 11.715 35.4167 13.645C36.25 15.5761 36.6667 17.6389 36.6667 19.8333C36.6667 22.0278 36.25 24.09 35.4167 26.02C34.5833 27.9511 33.4583 29.625 32.0417 31.0417C30.625 32.4583 28.9517 33.5833 27.0217 34.4167C25.0906 35.25 23.0278 35.6667 20.8333 35.6667ZM20.8333 33.1667C24.5556 33.1667 27.7083 31.875 30.2917 29.2917C32.875 26.7083 34.1667 23.5556 34.1667 19.8333C34.1667 16.1111 32.875 12.9583 30.2917 10.375C27.7083 7.79167 24.5556 6.5 20.8333 6.5C17.1111 6.5 13.9583 7.79167 11.375 10.375C8.79167 12.9583 7.5 16.1111 7.5 19.8333C7.5 23.5556 8.79167 26.7083 11.375 29.2917C13.9583 31.875 17.1111 33.1667 20.8333 33.1667Z" fill="currentColor"/>
</g>
</svg>
