<svg width="17" height="18" viewBox="0 0 17 18" fill="none" xmlns="http://www.w3.org/2000/svg">
<path d="M5.5 17.5C3.96667 17.5 2.66667 16.9667 1.6 15.9C0.533333 14.8333 0 13.5333 0 12V6C0 4.46667 0.533333 3.16667 1.6 2.1C2.66667 1.03333 3.96667 0.5 5.5 0.5H11.5C13.0333 0.5 14.3333 1.03333 15.4 2.1C16.4667 3.16667 17 4.46667 17 6V12C17 13.5333 16.4667 14.8333 15.4 15.9C14.3333 16.9667 13.0333 17.5 11.5 17.5H5.5ZM7.5 12.65L13.15 7L12.1 5.95L7.5 10.55L5.3 8.35L4.25 9.4L7.5 12.65ZM5.5 16H11.5C12.6 16 13.5417 15.6083 14.325 14.825C15.1083 14.0417 15.5 13.1 15.5 12V6C15.5 4.9 15.1083 3.95833 14.325 3.175C13.5417 2.39167 12.6 2 11.5 2H5.5C4.4 2 3.45833 2.39167 2.675 3.175C1.89167 3.95833 1.5 4.9 1.5 6V12C1.5 13.1 1.89167 14.0417 2.675 14.825C3.45833 15.6083 4.4 16 5.5 16Z" fill="#274593"/>
</svg>
