<svg width="22" height="12" viewBox="0 0 22 12" fill="none" xmlns="http://www.w3.org/2000/svg">
<path d="M6 11.5C4.46667 11.5 3.16667 10.9667 2.1 9.9C1.03333 8.83333 0.5 7.53333 0.5 6C0.5 4.46667 1.03333 3.16667 2.1 2.1C3.16667 1.03333 4.46667 0.5 6 0.5C7.03333 0.5 7.99167 0.775 8.875 1.325C9.75833 1.875 10.4333 2.6 10.9 3.5H21.5V8.5H19.5V11.5H14.5V8.5H10.9C10.4333 9.4 9.75833 10.125 8.875 10.675C7.99167 11.225 7.03333 11.5 6 11.5ZM6 10C7.1 10 7.98333 9.66267 8.65 8.988C9.31667 8.31267 9.71667 7.65 9.85 7H16V10H18V7H20V5H9.85C9.71667 4.35 9.31667 3.68733 8.65 3.012C7.98333 2.33733 7.1 2 6 2C4.9 2 3.95833 2.39167 3.175 3.175C2.39167 3.95833 2 4.9 2 6C2 7.1 2.39167 8.04167 3.175 8.825C3.95833 9.60833 4.9 10 6 10ZM6 7.625C6.45 7.625 6.83333 7.46667 7.15 7.15C7.46667 6.83333 7.625 6.45 7.625 6C7.625 5.55 7.46667 5.16667 7.15 4.85C6.83333 4.53333 6.45 4.375 6 4.375C5.55 4.375 5.16667 4.53333 4.85 4.85C4.53333 5.16667 4.375 5.55 4.375 6C4.375 6.45 4.53333 6.83333 4.85 7.15C5.16667 7.46667 5.55 7.625 6 7.625Z" fill="currentColor"/>
</svg>
