<svg width="20" height="20" viewBox="0 0 20 20" fill="none" xmlns="http://www.w3.org/2000/svg">
<path d="M7.69961 19.5L7.29961 16.45C7.03294 16.3667 6.76228 16.2417 6.48761 16.075C6.21228 15.9083 5.95794 15.7333 5.72461 15.55L2.89961 16.75L0.599609 12.75L3.04961 10.9C3.01628 10.75 2.99561 10.6 2.98761 10.45C2.97894 10.3 2.97461 10.15 2.97461 10C2.97461 9.86667 2.97894 9.725 2.98761 9.575C2.99561 9.425 3.01628 9.26667 3.04961 9.1L0.599609 7.25L2.89961 3.275L5.72461 4.45C5.95794 4.26667 6.21228 4.096 6.48761 3.938C6.76228 3.77933 7.03294 3.65 7.29961 3.55L7.69961 0.5H12.2996L12.6996 3.55C12.9996 3.66667 13.2703 3.79567 13.5116 3.937C13.7536 4.079 13.9996 4.25 14.2496 4.45L17.0996 3.275L19.3996 7.25L16.9246 9.125C16.9579 9.29167 16.9746 9.44167 16.9746 9.575V10C16.9746 10.1333 16.9703 10.2707 16.9616 10.412C16.9536 10.554 16.9329 10.7167 16.8996 10.9L19.3496 12.75L17.0496 16.75L14.2496 15.55C13.9996 15.75 13.7456 15.925 13.4876 16.075C13.2289 16.225 12.9663 16.35 12.6996 16.45L12.2996 19.5H7.69961ZM9.99961 13C10.8329 13 11.5413 12.7083 12.1246 12.125C12.7079 11.5417 12.9996 10.8333 12.9996 10C12.9996 9.16667 12.7079 8.45833 12.1246 7.875C11.5413 7.29167 10.8329 7 9.99961 7C9.16628 7 8.45794 7.29167 7.87461 7.875C7.29128 8.45833 6.99961 9.16667 6.99961 10C6.99961 10.8333 7.29128 11.5417 7.87461 12.125C8.45794 12.7083 9.16628 13 9.99961 13ZM9.99961 11.5C9.58294 11.5 9.22894 11.354 8.93761 11.062C8.64561 10.7707 8.49961 10.4167 8.49961 10C8.49961 9.58333 8.64561 9.22933 8.93761 8.938C9.22894 8.646 9.58294 8.5 9.99961 8.5C10.4163 8.5 10.7703 8.646 11.0616 8.938C11.3536 9.22933 11.4996 9.58333 11.4996 10C11.4996 10.4167 11.3536 10.7707 11.0616 11.062C10.7703 11.354 10.4163 11.5 9.99961 11.5ZM8.99961 18H10.9746L11.3246 15.325C11.8413 15.1917 12.3079 15 12.7246 14.75C13.1413 14.5 13.5496 14.1833 13.9496 13.8L16.4246 14.85L17.4246 13.15L15.2496 11.525C15.3329 11.2583 15.3873 11 15.4126 10.75C15.4373 10.5 15.4496 10.25 15.4496 10C15.4496 9.73333 15.4373 9.47933 15.4126 9.238C15.3873 8.996 15.3329 8.75 15.2496 8.5L17.4246 6.85L16.4496 5.15L13.9246 6.2C13.5913 5.85 13.1913 5.53733 12.7246 5.262C12.2579 4.98733 11.7913 4.79167 11.3246 4.675L10.9996 2H9.02461L8.67461 4.675C8.17461 4.79167 7.70794 4.975 7.27461 5.225C6.84128 5.475 6.42461 5.79167 6.02461 6.175L3.54961 5.15L2.57461 6.85L4.72461 8.45C4.64128 8.7 4.58294 8.95 4.54961 9.2C4.51628 9.45 4.49961 9.71667 4.49961 10C4.49961 10.2667 4.51628 10.525 4.54961 10.775C4.58294 11.025 4.64128 11.275 4.72461 11.525L2.57461 13.15L3.54961 14.85L6.02461 13.8C6.40794 14.1833 6.81628 14.5 7.24961 14.75C7.68294 15 8.15794 15.1917 8.67461 15.325L8.99961 18Z" fill="currentColor"/>
</svg>
