<svg width="22" height="12" viewBox="0 0 22 12" fill="none" xmlns="http://www.w3.org/2000/svg">
<path d="M6 11.5C4.46666 11.5 3.16666 10.9667 2.1 9.9C1.03333 8.83333 0.499999 7.53333 0.499999 6C0.499999 4.46667 1.03333 3.16667 2.1 2.1C3.16667 1.03333 4.46667 0.500001 6 0.500001L16 0.500003C17.5333 0.500003 18.8333 1.03334 19.9 2.1C20.9667 3.16667 21.5 4.46667 21.5 6C21.5 7.53334 20.9667 8.83334 19.9 9.9C18.8333 10.9667 17.5333 11.5 16 11.5L6 11.5ZM6 10L16 10C17.1 10 18.0417 9.60834 18.825 8.825C19.6083 8.04167 20 7.1 20 6C20 4.9 19.6083 3.95834 18.825 3.175C18.0417 2.39167 17.1 2 16 2L6 2C4.9 2 3.95833 2.39167 3.175 3.175C2.39167 3.95833 2 4.9 2 6C2 7.1 2.39167 8.04167 3.175 8.825C3.95833 9.60833 4.9 10 6 10ZM6 8.75C6.76666 8.75 7.41667 8.48333 7.95 7.95C8.48333 7.41667 8.75 6.76667 8.75 6C8.75 5.23334 8.48333 4.58333 7.95 4.05C7.41667 3.51667 6.76667 3.25 6 3.25C5.23333 3.25 4.58333 3.51667 4.05 4.05C3.51667 4.58333 3.25 5.23333 3.25 6C3.25 6.76667 3.51667 7.41667 4.05 7.95C4.58333 8.48333 5.23333 8.75 6 8.75Z" fill="white"/>
</svg>
