<svg width="22" height="12" viewBox="0 0 22 12" fill="none" xmlns="http://www.w3.org/2000/svg">
<path d="M16 0.5C17.5333 0.5 18.8333 1.03333 19.9 2.1C20.9667 3.16667 21.5 4.46667 21.5 6C21.5 7.53333 20.9667 8.83333 19.9 9.9C18.8333 10.9667 17.5333 11.5 16 11.5L6 11.5C4.46667 11.5 3.16667 10.9667 2.1 9.9C1.03333 8.83333 0.5 7.53334 0.5 6C0.499999 4.46667 1.03333 3.16667 2.1 2.1C3.16667 1.03334 4.46667 0.500001 6 0.500001L16 0.5ZM16 2L6 2C4.9 2 3.95833 2.39167 3.175 3.175C2.39167 3.95834 2 4.9 2 6C2 7.1 2.39167 8.04167 3.175 8.825C3.95833 9.60833 4.9 10 6 10L16 10C17.1 10 18.0417 9.60833 18.825 8.825C19.6083 8.04167 20 7.1 20 6C20 4.9 19.6083 3.95833 18.825 3.175C18.0417 2.39167 17.1 2 16 2ZM16 3.25C15.2333 3.25 14.5833 3.51667 14.05 4.05C13.5167 4.58333 13.25 5.23333 13.25 6C13.25 6.76667 13.5167 7.41667 14.05 7.95C14.5833 8.48333 15.2333 8.75 16 8.75C16.7667 8.75 17.4167 8.48333 17.95 7.95C18.4833 7.41667 18.75 6.76667 18.75 6C18.75 5.23333 18.4833 4.58333 17.95 4.05C17.4167 3.51667 16.7667 3.25 16 3.25Z" fill="#274593"/>
</svg>
