<svg width="11" height="13" viewBox="0 0 11 13" fill="none" xmlns="http://www.w3.org/2000/svg">
<path d="M10.48 0.672V0.992C10.1173 1.00267 9.84 1.056 9.648 1.152C9.46667 1.248 9.344 1.40267 9.28 1.616C9.216 1.82933 9.184 2.13333 9.184 2.528V7.344C9.184 8.09067 9.136 8.74133 9.04 9.296C8.944 9.85067 8.77333 10.3307 8.528 10.736C8.26133 11.184 7.872 11.5467 7.36 11.824C6.848 12.0907 6.26133 12.224 5.6 12.224C5.088 12.224 4.59733 12.16 4.128 12.032C3.66933 11.9147 3.264 11.6907 2.912 11.36C2.60267 11.0613 2.35733 10.7467 2.176 10.416C2.00533 10.0853 1.888 9.68 1.824 9.2C1.76 8.72 1.728 8.11733 1.728 7.392V2.368C1.728 1.97333 1.696 1.68533 1.632 1.504C1.568 1.312 1.44 1.184 1.248 1.12C1.06667 1.04533 0.794667 1.00267 0.432 0.992V0.672C0.656 0.682666 0.949333 0.693333 1.312 0.704C1.67467 0.714666 2.064 0.719999 2.48 0.719999C2.85333 0.719999 3.22133 0.714666 3.584 0.704C3.95733 0.693333 4.26667 0.682666 4.512 0.672V0.992C4.14933 1.00267 3.872 1.04533 3.68 1.12C3.49867 1.184 3.376 1.312 3.312 1.504C3.248 1.68533 3.216 1.97333 3.216 2.368V7.664C3.216 8.208 3.24267 8.72533 3.296 9.216C3.34933 9.696 3.456 10.1227 3.616 10.496C3.78667 10.8587 4.04267 11.1467 4.384 11.36C4.72533 11.5627 5.17867 11.664 5.744 11.664C6.55467 11.664 7.17867 11.488 7.616 11.136C8.064 10.7733 8.37333 10.2773 8.544 9.648C8.72533 9.01867 8.816 8.30933 8.816 7.52V2.528C8.816 2.13333 8.768 1.82933 8.672 1.616C8.58667 1.40267 8.43733 1.248 8.224 1.152C8.01067 1.056 7.72267 1.00267 7.36 0.992V0.672C7.552 0.682666 7.80267 0.693333 8.112 0.704C8.432 0.714666 8.72533 0.719999 8.992 0.719999C9.26933 0.719999 9.54133 0.714666 9.808 0.704C10.0853 0.693333 10.3093 0.682666 10.48 0.672Z" fill="currentColor"/>
<path d="M0 13.76H10.912V14.08H0V13.76Z" fill="currentColor"/>
</svg>
