<svg width="19" height="17" viewBox="0 0 19 17" fill="none" xmlns="http://www.w3.org/2000/svg">
<path d="M8 7.70001C7.03333 7.70001 6.20833 7.35401 5.525 6.66201C4.84167 5.97068 4.5 5.15001 4.5 4.20001C4.5 3.23335 4.84167 2.40835 5.525 1.72501C6.20833 1.04168 7.03333 0.700012 8 0.700012C8.96667 0.700012 9.79167 1.04168 10.475 1.72501C11.1583 2.40835 11.5 3.23335 11.5 4.20001C11.5 5.15001 11.1583 5.97068 10.475 6.66201C9.79167 7.35401 8.96667 7.70001 8 7.70001ZM0.5 15.3V13.075C0.5 12.575 0.629333 12.1207 0.888 11.712C1.146 11.304 1.50833 10.9833 1.975 10.75C2.79167 10.35 3.68333 10.0083 4.65 9.72501C5.61667 9.44168 6.73333 9.30001 8 9.30001H8.3C8.38333 9.30001 8.46667 9.31668 8.55 9.35001C8.45 9.58335 8.36667 9.82068 8.3 10.062C8.23333 10.304 8.18333 10.55 8.15 10.8H8C6.85 10.8 5.82933 10.9333 4.938 11.2C4.046 11.4667 3.28333 11.7667 2.65 12.1C2.43333 12.2167 2.27067 12.3583 2.162 12.525C2.054 12.6917 2 12.875 2 13.075V13.8H8.3C8.36667 14.0667 8.46267 14.329 8.588 14.587C8.71267 14.8457 8.84167 15.0833 8.975 15.3H0.5ZM14.1 16.05L13.875 14.725C13.6417 14.6583 13.421 14.5667 13.213 14.45C13.0043 14.3333 12.8 14.1917 12.6 14.025L11.35 14.45L10.625 13.25L11.675 12.4C11.5917 12.1333 11.55 11.875 11.55 11.625C11.55 11.375 11.5917 11.125 11.675 10.875L10.65 10L11.35 8.80001L12.6 9.25001C12.7833 9.06668 12.9833 8.92068 13.2 8.81201C13.4167 8.70401 13.6417 8.61668 13.875 8.55001L14.1 7.22501H15.525L15.75 8.55001C15.9833 8.61668 16.2083 8.70835 16.425 8.82501C16.6417 8.94168 16.8417 9.09168 17.025 9.27501L18.275 8.80001L18.975 10.025L17.95 10.9C18.0333 11.1333 18.075 11.3833 18.075 11.65C18.075 11.9167 18.0333 12.1667 17.95 12.4L19 13.25L18.275 14.45L17.025 14.025C16.825 14.1917 16.621 14.3333 16.413 14.45C16.2043 14.5667 15.9833 14.6583 15.75 14.725L15.525 16.05H14.1ZM14.8 13.55C15.3333 13.55 15.7833 13.3627 16.15 12.988C16.5167 12.6127 16.7 12.1583 16.7 11.625C16.7 11.1083 16.5167 10.6623 16.15 10.287C15.7833 9.91235 15.3333 9.72501 14.8 9.72501C14.2833 9.72501 13.8377 9.91235 13.463 10.287C13.0877 10.6623 12.9 11.1083 12.9 11.625C12.9 12.1583 13.0877 12.6127 13.463 12.988C13.8377 13.3627 14.2833 13.55 14.8 13.55ZM8 6.20001C8.55 6.20001 9.021 6.00401 9.413 5.61201C9.80433 5.22068 10 4.75001 10 4.20001C10 3.65001 9.80433 3.17901 9.413 2.78701C9.021 2.39568 8.55 2.20001 8 2.20001C7.45 2.20001 6.97933 2.39568 6.588 2.78701C6.196 3.17901 6 3.65001 6 4.20001C6 4.75001 6.196 5.22068 6.588 5.61201C6.97933 6.00401 7.45 6.20001 8 6.20001Z" fill="currentColor"/>
</svg>
