<svg width="42" height="40" viewBox="0 0 42 40" fill="none" xmlns="http://www.w3.org/2000/svg">
<path d="M4.33268 39.75C3.18685 39.75 2.20629 39.3424 1.39102 38.5271C0.574349 37.7104 0.166016 36.7292 0.166016 35.5833V12.6667C0.166016 11.5208 0.574349 10.5403 1.39102 9.725C2.20629 8.90833 3.18685 8.5 4.33268 8.5H12.666V4.33333C12.666 3.1875 13.0743 2.20625 13.891 1.38958C14.7063 0.574307 15.6868 0.166668 16.8327 0.166668H25.166C26.3118 0.166668 27.2931 0.574307 28.1098 1.38958C28.925 2.20625 29.3327 3.1875 29.3327 4.33333V8.5H37.666C38.8118 8.5 39.7931 8.90833 40.6098 9.725C41.425 10.5403 41.8327 11.5208 41.8327 12.6667V35.5833C41.8327 36.7292 41.425 37.7104 40.6098 38.5271C39.7931 39.3424 38.8118 39.75 37.666 39.75H4.33268ZM4.33268 35.5833H37.666V12.6667H4.33268V35.5833ZM16.8327 8.5H25.166V4.33333H16.8327V8.5Z" fill="currentColor"/>
</svg>
