<svg width="18" height="18" viewBox="0 0 18 18" fill="none" xmlns="http://www.w3.org/2000/svg">
<path d="M10.8008 0.5V2H2.12578C2.02578 2 1.94678 2.02933 1.88878 2.088C1.83011 2.146 1.80078 2.21667 1.80078 2.3V15.7C1.80078 15.7833 1.83011 15.8543 1.88878 15.913C1.94678 15.971 2.02578 16 2.12578 16H15.5008C15.5841 16 15.6548 15.971 15.7128 15.913C15.7714 15.8543 15.8008 15.7833 15.8008 15.7V7H17.3008V15.7C17.3008 16.2 17.1258 16.625 16.7758 16.975C16.4258 17.325 16.0008 17.5 15.5008 17.5H2.12578C1.60911 17.5 1.17578 17.325 0.825781 16.975C0.475781 16.625 0.300781 16.2 0.300781 15.7V2.3C0.300781 1.8 0.475781 1.375 0.825781 1.025C1.17578 0.675 1.60911 0.5 2.12578 0.5H10.8008ZM15.7008 0.125V2.125H17.7008V3.625H15.7008V5.625H14.2008V3.625H12.2008V2.125H14.2008V0.125H15.7008ZM3.55078 13.75H14.1258L10.8508 9.375L8.05078 13.025L6.05078 10.45L3.55078 13.75Z" fill="currentColor"/>
</svg>
