<svg width="11" height="12" viewBox="0 0 11 12" fill="none" xmlns="http://www.w3.org/2000/svg">
<path d="M0.496 0.672C0.784 0.682666 1.168 0.693333 1.648 0.704C2.128 0.714666 2.608 0.719999 3.088 0.719999C3.61067 0.719999 4.112 0.714666 4.592 0.704C5.08267 0.693333 5.42933 0.688 5.632 0.688C7.01867 0.688 8.05333 0.922666 8.736 1.392C9.42933 1.86133 9.776 2.464 9.776 3.2C9.776 3.57333 9.65333 3.95733 9.408 4.352C9.16267 4.736 8.784 5.08267 8.272 5.392C7.77067 5.69067 7.12533 5.89867 6.336 6.016V6.048C7.38133 6.112 8.21333 6.29333 8.832 6.592C9.46133 6.88 9.91467 7.22667 10.192 7.632C10.4693 8.03733 10.608 8.45867 10.608 8.896C10.608 9.58933 10.4213 10.1653 10.048 10.624C9.68533 11.0827 9.15733 11.4293 8.464 11.664C7.78133 11.888 6.96 12 6 12C5.744 12 5.37067 11.9947 4.88 11.984C4.38933 11.9627 3.80267 11.952 3.12 11.952C2.61867 11.952 2.128 11.9573 1.648 11.968C1.168 11.968 0.784 11.9787 0.496 12V11.68C0.826667 11.6587 1.072 11.616 1.232 11.552C1.40267 11.488 1.51467 11.36 1.568 11.168C1.632 10.976 1.664 10.688 1.664 10.304V2.368C1.664 1.97333 1.632 1.68533 1.568 1.504C1.51467 1.312 1.40267 1.184 1.232 1.12C1.072 1.04533 0.826667 1.00267 0.496 0.992V0.672ZM5.488 0.992C5.104 0.992 4.85333 1.08267 4.736 1.264C4.61867 1.44533 4.56 1.81333 4.56 2.368V10.304C4.56 10.6773 4.58667 10.96 4.64 11.152C4.704 11.344 4.81067 11.472 4.96 11.536C5.10933 11.6 5.33333 11.632 5.632 11.632C6.31467 11.632 6.81067 11.392 7.12 10.912C7.44 10.4213 7.6 9.728 7.6 8.832C7.6 8.01067 7.39733 7.376 6.992 6.928C6.59733 6.48 5.936 6.256 5.008 6.256H3.744C3.744 6.256 3.744 6.21333 3.744 6.128C3.744 6.032 3.744 5.984 3.744 5.984H5.12C5.57867 5.984 5.93067 5.86667 6.176 5.632C6.42133 5.38667 6.592 5.06667 6.688 4.672C6.784 4.26667 6.832 3.83467 6.832 3.376C6.832 2.58667 6.72533 1.99467 6.512 1.6C6.30933 1.19467 5.968 0.992 5.488 0.992Z" fill="currentColor"/>
</svg>
