<svg width="24" height="24" viewBox="0 0 16 20" fill="none" xmlns="http://www.w3.org/2000/svg">
<path d="M4.25 15.75H11.75V14.25H4.25V15.75ZM4.25 11.75H11.75V10.25H4.25V11.75ZM2.3 19.5C1.8 19.5 1.375 19.325 1.025 18.975C0.675 18.625 0.5 18.2 0.5 17.7V2.3C0.5 1.8 0.675 1.375 1.025 1.025C1.375 0.675 1.8 0.5 2.3 0.5H10.25L15.5 5.75V17.7C15.5 18.2 15.325 18.625 14.975 18.975C14.625 19.325 14.2 19.5 13.7 19.5H2.3ZM9.5 6.5V2H2.3C2.23333 2 2.16667 2.03333 2.1 2.1C2.03333 2.16667 2 2.23333 2 2.3V17.7C2 17.7667 2.03333 17.8333 2.1 17.9C2.16667 17.9667 2.23333 18 2.3 18H13.7C13.7667 18 13.8333 17.9667 13.9 17.9C13.9667 17.8333 14 17.7667 14 17.7V6.5H9.5Z" fill="currentColor"/>
</svg>
