<svg width="19" height="18" viewBox="0 0 19 18" fill="none" xmlns="http://www.w3.org/2000/svg">
<path d="M13 10.5C13.4333 10.5 13.7917 10.3584 14.075 10.075C14.3583 9.7917 14.5 9.43336 14.5 9.00003C14.5 8.5667 14.3583 8.20836 14.075 7.92503C13.7917 7.6417 13.4333 7.50003 13 7.50003C12.5667 7.50003 12.2083 7.6417 11.925 7.92503C11.6417 8.20836 11.5 8.5667 11.5 9.00003C11.5 9.43336 11.6417 9.7917 11.925 10.075C12.2083 10.3584 12.5667 10.5 13 10.5ZM2.3 17.5C1.8 17.5 1.375 17.325 1.025 16.975C0.675 16.625 0.5 16.2 0.5 15.7V2.30003C0.5 1.80003 0.675 1.37503 1.025 1.02503C1.375 0.675031 1.8 0.500031 2.3 0.500031H15.7C16.2 0.500031 16.625 0.675031 16.975 1.02503C17.325 1.37503 17.5 1.80003 17.5 2.30003V5.02503H16V2.30003C16 2.2167 15.971 2.14603 15.913 2.08803C15.8543 2.02936 15.7833 2.00003 15.7 2.00003H2.3C2.21667 2.00003 2.146 2.02936 2.088 2.08803C2.02933 2.14603 2 2.2167 2 2.30003V15.7C2 15.7834 2.02933 15.8544 2.088 15.913C2.146 15.971 2.21667 16 2.3 16H15.7C15.7833 16 15.8543 15.971 15.913 15.913C15.971 15.8544 16 15.7834 16 15.7V12.975H17.5V15.7C17.5 16.2 17.325 16.625 16.975 16.975C16.625 17.325 16.2 17.5 15.7 17.5H2.3ZM10.3 13.5C9.8 13.5 9.375 13.325 9.025 12.975C8.675 12.625 8.5 12.2 8.5 11.7V6.30003C8.5 5.80003 8.675 5.37503 9.025 5.02503C9.375 4.67503 9.8 4.50003 10.3 4.50003H16.7C17.2 4.50003 17.625 4.67503 17.975 5.02503C18.325 5.37503 18.5 5.80003 18.5 6.30003V11.7C18.5 12.2 18.325 12.625 17.975 12.975C17.625 13.325 17.2 13.5 16.7 13.5H10.3ZM16.7 12C16.7833 12 16.8543 11.9707 16.913 11.912C16.971 11.854 17 11.7834 17 11.7V6.30003C17 6.2167 16.971 6.1457 16.913 6.08703C16.8543 6.02903 16.7833 6.00003 16.7 6.00003H10.3C10.2167 6.00003 10.146 6.02903 10.088 6.08703C10.0293 6.1457 10 6.2167 10 6.30003V11.7C10 11.7834 10.0293 11.854 10.088 11.912C10.146 11.9707 10.2167 12 10.3 12H16.7Z" fill="currentColor"/>
</svg>
