<svg width="46" height="34" viewBox="0 0 46 34" fill="none" xmlns="http://www.w3.org/2000/svg">
<path d="M0.0839844 33.6667V27.8333C0.0839844 26.6528 0.388151 25.5674 0.996484 24.5771C1.60343 23.5882 2.41037 22.8333 3.41732 22.3125C5.5701 21.2361 7.7576 20.4285 9.97982 19.8896C12.202 19.3521 14.459 19.0833 16.7507 19.0833C19.0423 19.0833 21.2993 19.3521 23.5215 19.8896C25.7437 20.4285 27.9312 21.2361 30.084 22.3125C31.0909 22.8333 31.8979 23.5882 32.5048 24.5771C33.1132 25.5674 33.4173 26.6528 33.4173 27.8333V33.6667H0.0839844ZM37.584 33.6667V27.4167C37.584 25.8889 37.159 24.4215 36.309 23.0146C35.4576 21.609 34.2507 20.4028 32.6882 19.3958C34.459 19.6042 36.1257 19.9597 37.6882 20.4625C39.2507 20.9667 40.709 21.5833 42.0632 22.3125C43.3132 23.0069 44.268 23.7792 44.9277 24.6292C45.5875 25.4806 45.9173 26.4097 45.9173 27.4167V33.6667H37.584ZM16.7507 17C14.459 17 12.4972 16.184 10.8652 14.5521C9.23329 12.9201 8.41732 10.9583 8.41732 8.66667C8.41732 6.375 9.23329 4.41319 10.8652 2.78125C12.4972 1.1493 14.459 0.333332 16.7507 0.333332C19.0423 0.333332 21.0041 1.1493 22.6361 2.78125C24.268 4.41319 25.084 6.375 25.084 8.66667C25.084 10.9583 24.268 12.9201 22.6361 14.5521C21.0041 16.184 19.0423 17 16.7507 17ZM37.584 8.66667C37.584 10.9583 36.768 12.9201 35.1361 14.5521C33.5041 16.184 31.5423 17 29.2507 17C28.8687 17 28.3826 16.9569 27.7923 16.8708C27.202 16.7833 26.7159 16.6875 26.334 16.5833C27.2715 15.4722 27.9916 14.2396 28.4944 12.8854C28.9986 11.5312 29.2507 10.125 29.2507 8.66667C29.2507 7.20833 28.9986 5.80208 28.4944 4.44792C27.9916 3.09375 27.2715 1.86111 26.334 0.749998C26.8201 0.576387 27.3062 0.463194 27.7923 0.410416C28.2784 0.359027 28.7645 0.333332 29.2507 0.333332C31.5423 0.333332 33.5041 1.1493 35.1361 2.78125C36.768 4.41319 37.584 6.375 37.584 8.66667ZM4.25065 29.5H29.2507V27.8333C29.2507 27.4514 29.1555 27.1042 28.9652 26.7917C28.7736 26.4792 28.5215 26.2361 28.209 26.0625C26.334 25.125 24.4416 24.4215 22.5319 23.9521C20.6222 23.484 18.6951 23.25 16.7507 23.25C14.8062 23.25 12.8791 23.484 10.9694 23.9521C9.05968 24.4215 7.16732 25.125 5.29232 26.0625C4.97982 26.2361 4.72843 26.4792 4.53815 26.7917C4.34648 27.1042 4.25065 27.4514 4.25065 27.8333V29.5ZM16.7507 12.8333C17.8965 12.8333 18.8777 12.425 19.6944 11.6083C20.5097 10.7931 20.9173 9.8125 20.9173 8.66667C20.9173 7.52083 20.5097 6.54028 19.6944 5.725C18.8777 4.90833 17.8965 4.5 16.7507 4.5C15.6048 4.5 14.6243 4.90833 13.809 5.725C12.9923 6.54028 12.584 7.52083 12.584 8.66667C12.584 9.8125 12.9923 10.7931 13.809 11.6083C14.6243 12.425 15.6048 12.8333 16.7507 12.8333Z" fill="currentColor"/>
</svg>
