<svg width="17" height="20" viewBox="0 0 17 20" fill="none" xmlns="http://www.w3.org/2000/svg">
<path d="M7.075 14.725L13.8 8L12.75 6.95L7.075 12.625L4.225 9.775L3.175 10.825L7.075 14.725ZM1.8 19.5C1.3 19.5 0.875 19.325 0.525 18.975C0.175 18.625 0 18.2 0 17.7V4.3C0 3.8 0.175 3.375 0.525 3.025C0.875 2.675 1.3 2.5 1.8 2.5H6.25C6.31667 1.95 6.56267 1.479 6.988 1.087C7.41267 0.695667 7.91667 0.5 8.5 0.5C9.1 0.5 9.60833 0.695667 10.025 1.087C10.4417 1.479 10.6833 1.95 10.75 2.5H15.2C15.7 2.5 16.125 2.675 16.475 3.025C16.825 3.375 17 3.8 17 4.3V17.7C17 18.2 16.825 18.625 16.475 18.975C16.125 19.325 15.7 19.5 15.2 19.5H1.8ZM1.8 18H15.2C15.2667 18 15.3333 17.9667 15.4 17.9C15.4667 17.8333 15.5 17.7667 15.5 17.7V4.3C15.5 4.23333 15.4667 4.16667 15.4 4.1C15.3333 4.03333 15.2667 4 15.2 4H1.8C1.73333 4 1.66667 4.03333 1.6 4.1C1.53333 4.16667 1.5 4.23333 1.5 4.3V17.7C1.5 17.7667 1.53333 17.8333 1.6 17.9C1.66667 17.9667 1.73333 18 1.8 18ZM8.5 3.35C8.71667 3.35 8.896 3.279 9.038 3.137C9.17933 2.99567 9.25 2.81667 9.25 2.6C9.25 2.38333 9.17933 2.204 9.038 2.062C8.896 1.92067 8.71667 1.85 8.5 1.85C8.28333 1.85 8.10433 1.92067 7.963 2.062C7.821 2.204 7.75 2.38333 7.75 2.6C7.75 2.81667 7.821 2.99567 7.963 3.137C8.10433 3.279 8.28333 3.35 8.5 3.35Z" fill="#274593"/>
</svg>
