<svg width="30" height="30" viewBox="0 0 30 30" fill="none" xmlns="http://www.w3.org/2000/svg">
<rect width="30" height="30" rx="15" fill="#EEA23D"/>
<path d="M14.9985 18.6268C15.2327 18.6268 15.4252 18.5472 15.5758 18.3879C15.7263 18.2292 15.8016 18.0328 15.8016 17.7985C15.8016 17.581 15.7263 17.3929 15.5758 17.2343C15.4252 17.075 15.2327 16.9954 14.9985 16.9954C14.7642 16.9954 14.5718 17.075 14.4212 17.2343C14.2706 17.3929 14.1953 17.581 14.1953 17.7985C14.1953 18.0328 14.2706 18.2292 14.4212 18.3879C14.5718 18.5472 14.7642 18.6268 14.9985 18.6268ZM14.2455 15.1882H15.7514V10.3441H14.2455V15.1882ZM14.9985 24.5C12.8232 23.9144 11.0245 22.6387 9.60217 20.6729C8.17989 18.7065 7.46875 16.5101 7.46875 14.0839V8.3111L14.9985 5.5L22.5282 8.3111V14.0839C22.5282 16.5101 21.8171 18.7065 20.3948 20.6729C18.9725 22.6387 17.1737 23.9144 14.9985 24.5ZM14.9985 22.9188C16.7387 22.3666 18.1777 21.2622 19.3155 19.6057C20.4533 17.9491 21.0223 16.1085 21.0223 14.0839V9.34016L14.9985 7.08124L8.97469 9.34016V14.0839C8.97469 16.1085 9.54361 17.9491 10.6814 19.6057C11.8193 21.2622 13.2583 22.3666 14.9985 22.9188Z" fill="white"/>
</svg>
