<svg width="18" height="20" viewBox="0 0 18 20" fill="none" xmlns="http://www.w3.org/2000/svg">
<path d="M13 15C13.4167 15 13.7707 14.854 14.062 14.562C14.354 14.2707 14.5 13.9167 14.5 13.5C14.5 13.0834 14.354 12.7294 14.062 12.438C13.7707 12.146 13.4167 12 13 12C12.5833 12 12.2293 12.146 11.938 12.438C11.646 12.7294 11.5 13.0834 11.5 13.5C11.5 13.9167 11.646 14.2707 11.938 14.562C12.2293 14.854 12.5833 15 13 15ZM13 18C13.5167 18 13.9917 17.879 14.425 17.637C14.8583 17.3957 15.2083 17.075 15.475 16.675C15.1083 16.4584 14.7167 16.2917 14.3 16.175C13.8833 16.0584 13.45 16 13 16C12.55 16 12.1167 16.0584 11.7 16.175C11.2833 16.2917 10.8917 16.4584 10.525 16.675C10.7917 17.075 11.1417 17.3957 11.575 17.637C12.0083 17.879 12.4833 18 13 18ZM8 19.475C5.83333 18.8917 4.04167 17.621 2.625 15.663C1.20833 13.7044 0.5 11.5167 0.5 9.10002V3.35002L8 0.550018L15.5 3.35002V9.00002C15.2667 8.91669 15.021 8.83735 14.763 8.76202C14.5043 8.68735 14.25 8.62502 14 8.57502V4.40002L8 2.15002L2 4.40002V9.10002C2 9.98335 2.125 10.846 2.375 11.688C2.625 12.5294 2.971 13.3207 3.413 14.062C3.85433 14.804 4.37933 15.4667 4.988 16.05C5.596 16.6334 6.25833 17.1 6.975 17.45L7 17.425C7.13333 17.7917 7.30433 18.1417 7.513 18.475C7.721 18.8084 7.95833 19.1167 8.225 19.4C8.19167 19.4167 8.15833 19.4294 8.125 19.438C8.09167 19.446 8.05 19.4584 8 19.475ZM13 19.5C11.75 19.5 10.6873 19.0627 9.812 18.188C8.93733 17.3127 8.5 16.25 8.5 15C8.5 13.75 8.93733 12.6874 9.812 11.812C10.6873 10.9374 11.75 10.5 13 10.5C14.25 10.5 15.3127 10.9374 16.188 11.812C17.0627 12.6874 17.5 13.75 17.5 15C17.5 16.25 17.0627 17.3127 16.188 18.188C15.3127 19.0627 14.25 19.5 13 19.5Z" fill="currentColor"/>
</svg>
