<svg width="28" height="20" viewBox="0 0 28 20" fill="none" xmlns="http://www.w3.org/2000/svg">
<path fill-rule="evenodd" clip-rule="evenodd" d="M24.3887 1.21912C25.5355 1.52721 26.4427 2.43436 26.7507 3.58112C27.3156 5.66927 27.3327 9.99961 27.3327 9.99961C27.3327 9.99961 27.3327 14.3471 26.7679 16.4181C26.4598 17.5649 25.5526 18.472 24.4059 18.7801C22.3348 19.3449 13.9993 19.3449 13.9993 19.3449C13.9993 19.3449 5.66388 19.3449 3.59285 18.7801C2.44607 18.472 1.53893 17.5649 1.23084 16.4181C0.666016 14.33 0.666016 9.99961 0.666016 9.99961C0.666016 9.99961 0.666016 5.66927 1.21373 3.59824C1.52181 2.45147 2.42896 1.54433 3.57573 1.23624C5.64676 0.671409 13.9822 0.654297 13.9822 0.654297C13.9822 0.654297 22.3177 0.654297 24.3887 1.21912ZM18.2441 9.99962L11.3293 14.0047V5.99448L18.2441 9.99962Z" fill="currentColor"/>
</svg>
